<?xml version="1.0" standalone="no"?><!DOCTYPE svg PUBLIC "-//W3C//DTD SVG 1.1//EN" "http://www.w3.org/Graphics/SVG/1.1/DTD/svg11.dtd"><svg t="1628313830929" class="icon" viewBox="0 0 1024 1024" version="1.1" xmlns="http://www.w3.org/2000/svg" p-id="9414" xmlns:xlink="http://www.w3.org/1999/xlink" width="200" height="200"><defs><style type="text/css"></style></defs><path d="M147.017143 950.223238v-194.657524c14.57981-9.752381 243.321905-145.993143 243.321905-145.993143l97.328762 48.664381-243.321905 145.993143v145.993143c0 24.380952-24.380952 48.664381-48.664381 48.664381-24.380952 0-48.664381-24.33219-48.664381-48.664381zM512 35.303619l121.660952 184.953905c14.628571 14.57981 14.628571 34.03581 0 48.664381H536.380952v194.657524l340.650667 194.657523v291.986286c0 24.380952-24.33219 48.664381-48.664381 48.664381s-48.664381-24.33219-48.664381-48.664381v-243.321905l-340.650667-194.657523v-243.321905H341.674667c-14.628571-14.628571-14.628571-34.084571 0-48.664381L468.21181 35.303619c14.628571-14.628571 34.03581-14.628571 43.78819 0z" p-id="9415" fill="#1296db"></path></svg>