<?xml version="1.0" standalone="no"?><!DOCTYPE svg PUBLIC "-//W3C//DTD SVG 1.1//EN" "http://www.w3.org/Graphics/SVG/1.1/DTD/svg11.dtd"><svg t="1628313644327" class="icon" viewBox="0 0 1126 1024" version="1.1" xmlns="http://www.w3.org/2000/svg" p-id="5283" xmlns:xlink="http://www.w3.org/1999/xlink" width="219.921875" height="200"><defs><style type="text/css"></style></defs><path d="M0 887.45h1126.4V1024H0V887.45z m872.96-392.807L624.794 727.757c-15.412 14.029-37.172 23.193-61.594 23.193a89.6 89.6 0 0 1-61.338-23.296l-248.73-232.857c-12.953-12.544-21.247-28.775-21.247-46.746 0-38.605 37.12-69.888 82.841-69.888l1.895 0.051v-0.358h163.737V206.438c0-38.604 37.12-69.888 82.842-69.888s82.842 31.232 82.842 69.888v171.418h160.716v0.512c1.639 0 3.226-0.205 4.916-0.205 45.721 0 82.841 31.335 82.841 69.94 0 17.92-8.294 34.201-21.504 46.591zM430.694 0h265.012v409.6H430.694V0z" p-id="5284" fill="#1296db"></path></svg>