<?xml version="1.0" standalone="no"?><!DOCTYPE svg PUBLIC "-//W3C//DTD SVG 1.1//EN" "http://www.w3.org/Graphics/SVG/1.1/DTD/svg11.dtd"><svg t="1628313803132" class="icon" viewBox="0 0 1024 1024" version="1.1" xmlns="http://www.w3.org/2000/svg" p-id="7202" xmlns:xlink="http://www.w3.org/1999/xlink" width="200" height="200"><defs><style type="text/css"></style></defs><path d="M75.09333333 846.96177778h873.81333334V948.90666667H75.09333333v-101.94488889z m687.54545778-539.04839111l-200.81777778-211.78254222C549.36348445 83.37976889 531.77116445 75.09333333 512 75.09333333s-37.35552 8.28643555-49.61052445 21.16835556l-201.23875555 211.49923556c-10.50168889 11.40280889-17.19296 26.13475555-17.19296 42.46755555 0 35.06176 30.01457778 63.48913778 67.01511111 63.48913778 0.51655111 0 1.01831111-0.06485333 1.52803556-0.07964445v0.40049778H402.77333333v348.98602667h218.45333334V414.03847111h87.82506666v-0.50972444c1.32551111 0.07281778 2.62826667 0.20366222 3.98336 0.20366222 37.00622222 0 67.01511111-28.43534222 67.01511112-63.50392889 0-16.33393778-6.70037333-31.05678222-17.41141334-42.31395555z" p-id="7203" fill="#1296db"></path></svg>